<svg width="16" height="16" viewBox="0 0 16 16" fill="#FFF6E5" xmlns="http://www.w3.org/2000/svg">
<path d="M9.64265 13.5C8.54371 13.5 7.56628 13.2728 6.71037 12.8184C5.86503 12.3535 5.19933 11.7089 4.71326 10.8847C4.23775 10.05 4 9.08838 4 8C4 7.18636 4.13737 6.44669 4.4121 5.78098C4.68684 5.10471 5.07253 4.52354 5.56916 4.03746C6.07637 3.54083 6.67339 3.16042 7.36023 2.89625C8.05764 2.63208 8.81844 2.5 9.64265 2.5C9.93852 2.5 10.2185 2.51585 10.4827 2.54755C10.7574 2.57925 11.0216 2.63208 11.2752 2.70605V3.22911C10.3453 3.22911 9.5317 3.42988 8.83429 3.83141C8.14745 4.23295 7.61383 4.79299 7.23343 5.51153C6.85303 6.2195 6.66282 7.04899 6.66282 8C6.66282 8.94044 6.85303 9.76993 7.23343 10.4885C7.61383 11.207 8.14745 11.7671 8.83429 12.1686C9.5317 12.5701 10.3453 12.7709 11.2752 12.7709V13.2939C11.0216 13.3679 10.7574 13.4208 10.4827 13.4525C10.2185 13.4842 9.93852 13.5 9.64265 13.5ZM9.6268 13.0245C8.89769 12.8554 8.25841 12.5384 7.70893 12.0735C7.15946 11.598 6.73151 11.0115 6.42507 10.3141C6.11864 9.60615 5.96542 8.83477 5.96542 8C5.96542 7.16523 6.11864 6.39914 6.42507 5.70173C6.73151 5.00432 7.15946 4.41787 7.70893 3.94236C8.25841 3.45629 8.89769 3.13401 9.6268 2.9755C8.9294 2.9755 8.27954 3.10759 7.67723 3.37176C7.07493 3.63593 6.55187 4.00048 6.10807 4.46542C5.66427 4.91979 5.31556 5.45341 5.06196 6.06628C4.81892 6.66859 4.69741 7.31316 4.69741 8C4.69741 8.69741 4.81892 9.35255 5.06196 9.96542C5.31556 10.5677 5.66427 11.1013 6.10807 11.5663C6.55187 12.0207 7.07493 12.3799 7.67723 12.6441C8.27954 12.8977 8.9294 13.0245 9.6268 13.0245Z" />
</svg>
