<svg width="16" height="16" viewBox="0 0 16 16" fill="#FFF6E5"  xmlns="http://www.w3.org/2000/svg">
<path d="M7.30201 4.24412H8.68456C8.79195 4.24412 8.87248 4.13662 8.87248 4.04255L8.85906 3.97536L8.1745 2.12094C8.14765 2.02688 8.08054 2 8 2C7.90604 2 7.85235 2.02688 7.8255 2.12094L7.12752 3.97536C7.11409 3.9888 7.11409 4.00224 7.11409 4.04255C7.11409 4.13662 7.19463 4.24412 7.30201 4.24412ZM4.72483 5.88354C4.77852 5.88354 4.81879 5.85666 4.84564 5.81635L5.8255 4.84882C5.86577 4.82195 5.8792 4.78163 5.8792 4.71445C5.8792 4.63382 5.8255 4.56663 5.75839 4.53975L3.97315 3.70661C3.94631 3.70661 3.93289 3.69317 3.89262 3.69317C3.79866 3.69317 3.69128 3.76036 3.69128 3.89474C3.69128 3.92161 3.7047 3.94849 3.71812 3.97536L4.53691 5.7626C4.57718 5.84323 4.63087 5.88354 4.72483 5.88354ZM11.3154 5.88354C11.3691 5.8701 11.4094 5.82979 11.4497 5.7626L12.2685 3.97536L12.2819 3.93505C12.2953 3.92161 12.2953 3.90817 12.2953 3.89474C12.2953 3.7738 12.2013 3.69317 12.094 3.69317C12.0671 3.69317 12.0403 3.70661 12.0268 3.70661L10.2282 4.53975C10.1477 4.58007 10.1074 4.64726 10.1074 4.71445C10.1074 4.78163 10.1342 4.82195 10.1745 4.84882L11.1275 5.81635C11.1812 5.85666 11.2349 5.88354 11.3154 5.88354ZM8 11.1781C9.73154 11.1781 11.1812 9.76708 11.1812 7.99328C11.1812 6.23292 9.73154 4.82195 8 4.82195C6.24161 4.82195 4.81879 6.23292 4.81879 7.99328C4.81879 9.75364 6.24161 11.1781 8 11.1781ZM8 10.3852C6.68456 10.3852 5.61074 9.31019 5.61074 7.99328C5.61074 6.67637 6.68456 5.61478 8 5.61478C9.30201 5.61478 10.3893 6.67637 10.3893 7.99328C10.3893 9.32363 9.30201 10.3852 8 10.3852ZM4.04027 8.88018C4.16107 8.88018 4.22819 8.78611 4.22819 8.67861V7.32139C4.22819 7.21389 4.16107 7.11982 4.04027 7.11982H4.01342L2.12081 7.81859C2.04027 7.84546 2 7.91265 2 7.99328C2 8.07391 2.04027 8.15454 2.12081 8.18141L3.97315 8.86674L4.04027 8.88018ZM11.9463 8.88018L12.0134 8.86674L13.8658 8.18141C13.9597 8.1411 14 8.08735 14 7.99328C14 7.91265 13.9597 7.8589 13.8658 7.81859L12.0134 7.13326C11.9866 7.11982 11.9597 7.11982 11.9329 7.11982C11.8255 7.11982 11.7584 7.21389 11.7584 7.32139V8.67861C11.7584 8.79955 11.8389 8.88018 11.9463 8.88018ZM3.89262 12.3068C3.91946 12.3068 3.94631 12.2934 3.97315 12.28L5.75839 11.4602C5.8255 11.4334 5.8792 11.3527 5.8792 11.2856C5.8792 11.2318 5.86577 11.1781 5.8255 11.1512L4.84564 10.1702C4.81879 10.1433 4.77852 10.1165 4.71141 10.1165C4.63087 10.1165 4.57718 10.1568 4.53691 10.224L3.71812 12.0246C3.7047 12.0381 3.7047 12.0515 3.7047 12.0649L3.69128 12.1053C3.69128 12.2262 3.77181 12.3068 3.89262 12.3068ZM12.094 12.3068C12.2148 12.3068 12.2953 12.2128 12.2953 12.1053C12.2819 12.0918 12.2819 12.0918 12.2819 12.0649L12.2685 12.0246L11.4497 10.224C11.4094 10.1568 11.3423 10.1165 11.2752 10.1165C11.2215 10.1165 11.1678 10.1433 11.1275 10.1702L10.1745 11.1512C10.1342 11.1781 10.1074 11.2318 10.1074 11.2856C10.1074 11.3662 10.1477 11.4199 10.2282 11.4602L12.0268 12.28C12.0537 12.2934 12.0671 12.3068 12.094 12.3068ZM8 14C8.08054 14 8.14765 13.9597 8.1745 13.8791L8.85906 12.0246C8.87248 12.0112 8.87248 11.9843 8.87248 11.9574C8.87248 11.8499 8.77852 11.7559 8.68456 11.7559H7.30201C7.18121 11.7559 7.11409 11.8499 7.11409 11.9574C7.12752 11.9978 7.12752 12.0112 7.12752 12.0246L7.8255 13.8791C7.85235 13.9597 7.91946 14 8 14Z" />
</svg>
